<?xml version="1.0" encoding="utf-8"?>
<!-- Generator: Adobe Illustrator 19.0.1, SVG Export Plug-In . SVG Version: 6.00 Build 0)  -->
<svg version="1.1" id="Layer_1" xmlns="http://www.w3.org/2000/svg" xmlns:xlink="http://www.w3.org/1999/xlink" x="0px" y="0px"
	 viewBox="0 0 142 184.5" style="enable-background:new 0 0 142 184.5;" xml:space="preserve">
<style type="text/css">
	.st0{fill:#E8478B;}
	.st1{fill:#40BEB0;}
	.st2{fill:#37A595;}
	.st3{fill:#231F20;}
</style>
<g>
	<path class="st0" d="M2.7,69.1c24.5,0,47.6,6.3,67.7,17.2L142,0H0v171.1v0V69.1C0.9,69.1,1.8,69.1,2.7,69.1z"/>
	<path class="st1" d="M70.4,86.3L0,171.1v13.5h141.9C133.9,142.1,107.1,106.3,70.4,86.3z"/>
	<path class="st2" d="M70.4,86.3L0,171.1v13.5h25.3l68.3-82.4c0,0-4.5-3.8-11-8.3C77.7,90.3,70.4,86.3,70.4,86.3z"/>
	<path class="st3" d="M2.7,69.1c-0.9,0-1.8,0.1-2.7,0.1v101.9l70.4-84.7C50.3,75.3,27.2,69.1,2.7,69.1z"/>
</g>
</svg>
