<?xml version="1.0" encoding="utf-8"?>
<!-- Generator: Adobe Illustrator 19.0.1, SVG Export Plug-In . SVG Version: 6.00 Build 0)  -->
<svg version="1.1" id="Layer_1" xmlns="http://www.w3.org/2000/svg" xmlns:xlink="http://www.w3.org/1999/xlink" x="0px" y="0px"
	 viewBox="0 0 185 185" style="enable-background:new 0 0 185 185;" xml:space="preserve">
<style type="text/css">
	.st0{clip-path:url(#SVGID_2_);fill:#EFBF1B;}
	.st1{clip-path:url(#SVGID_2_);fill:#40BEB0;}
	.st2{clip-path:url(#SVGID_2_);fill:#0AA5DE;}
	.st3{clip-path:url(#SVGID_2_);fill:#231F20;}
	.st4{fill:#D7A229;}
	.st5{fill:#009B8F;}
</style>
<g>
	<g>
		<g>
			<defs>
				<circle id="SVGID_1_" cx="92.5" cy="92.5" r="92.5"/>
			</defs>
			<clipPath id="SVGID_2_">
				<use xlink:href="#SVGID_1_"  style="overflow:visible;"/>
			</clipPath>
			<path class="st0" d="M132.1,52H5.8C2.6,52,0,49.4,0,46.2V5.8C0,2.6,2.6,0,5.8,0h164.7c3.2,0,5.8,2.6,5.8,5.8v2.1
				C176.2,32.2,156.4,52,132.1,52z"/>
			<path class="st1" d="M176.6,185H0.5c0,0-0.1,0-0.1-0.1v-51.9c0,0,0-0.1,0.1-0.1h132.1c24.3,0,44,19.7,44,44L176.6,185
				C176.7,185,176.6,185,176.6,185z"/>
			<path class="st2" d="M121.6,118.5H-9.2v-52h130.9c14.4,0,26,11.7,26,26v0C147.6,106.9,136,118.5,121.6,118.5z"/>
			<path class="st3" d="M80.9,66.5H-4.5v52h85.6c1.9-7.8,3-16.5,3-26C84.1,82.9,82.9,74.3,80.9,66.5z"/>
		</g>
		<path class="st4" d="M46,12.5C30.2,21.7,17.4,35.4,9.3,51.9h68.3C70.5,36.3,59.6,22.7,46,12.5z"/>
		<path class="st5" d="M48.7,173.9c13.3-10.8,23.9-24.8,30.5-40.9H9.3C17.9,150.4,31.7,164.8,48.7,173.9z"/>
	</g>
</g>
</svg>
